<svg fill="none" height="24" viewBox="0 0 24 24" width="24" xmlns="http://www.w3.org/2000/svg">
    <path
        d="M11.9997 1.64404C11.6037 1.64404 11.2238 1.83558 10.9438 2.17651C10.6637 2.51745 10.5064 2.97986 10.5064 3.46201C10.5065 3.79133 10.5801 4.11442 10.7193 4.39678C10.8585 4.67914 11.0581 4.91016 11.2968 5.06517L8.34368 11.8062L4.32597 8.92835C4.46123 8.64918 4.53273 8.33106 4.53305 8.00694C4.53305 7.52478 4.37572 7.06238 4.09567 6.72144C3.81561 6.38051 3.43578 6.18897 3.03972 6.18897C2.64366 6.18897 2.26383 6.38051 1.98377 6.72144C1.70372 7.06238 1.54639 7.52478 1.54639 8.00694C1.54639 8.4891 1.70372 8.9515 1.98377 9.29244C2.26383 9.63338 2.64366 9.82491 3.03972 9.82491C3.08942 9.82438 3.13906 9.82082 3.18847 9.81426L3.78639 17.0968H6.02639H15.7331H17.9731H20.2131L20.811 9.81603C20.8604 9.822 20.91 9.82497 20.9597 9.82491C21.3558 9.82491 21.7356 9.63338 22.0157 9.29244C22.2957 8.9515 22.4531 8.4891 22.4531 8.00694C22.4531 7.52478 22.2957 7.06238 22.0157 6.72144C21.7356 6.38051 21.3558 6.18897 20.9597 6.18897C20.5637 6.18897 20.1838 6.38051 19.9038 6.72144C19.6237 7.06238 19.4664 7.52478 19.4664 8.00694C19.4667 8.33106 19.5382 8.64918 19.6735 8.92835L15.6558 11.8062L12.7026 5.06517C12.9413 4.91016 13.1409 4.67914 13.2801 4.39678C13.4193 4.11442 13.4929 3.79133 13.4931 3.46201C13.4931 2.97986 13.3357 2.51745 13.0557 2.17651C12.7756 1.83558 12.3958 1.64404 11.9997 1.64404ZM3.78639 18.9148V20.7327C3.78639 21.7372 4.45465 22.5507 5.27972 22.5507H18.7197C19.5448 22.5507 20.2131 21.7372 20.2131 20.7327V18.9148H3.78639Z"
        fill="currentColor" />
</svg>
