<svg fill="none" height="24" viewBox="0 0 24 24" width="24" xmlns="http://www.w3.org/2000/svg">
    <path
        d="M3.44699 1.54663C2.39691 1.54663 1.54639 2.39715 1.54639 3.44724V20.5527C1.54639 21.6028 2.39691 22.4533 3.44699 22.4533H4.92627C4.59937 21.8917 4.3973 21.2483 4.3973 20.5527V3.44724C4.3973 2.75162 4.59937 2.10826 4.92627 1.54663H3.44699ZM8.19851 1.54663C7.14842 1.54663 6.2979 2.39715 6.2979 3.44724V20.5527C6.2979 21.6028 7.14842 22.4533 8.19851 22.4533H20.5524C21.6025 22.4533 22.4531 21.6028 22.4531 20.5527V7.7236C22.4531 7.47177 22.3533 7.23036 22.1746 7.05171L16.948 1.82504C16.7693 1.64638 16.5279 1.54663 16.2761 1.54663H8.19851ZM15.8009 3.35629L20.6434 8.19875H16.7512C16.2267 8.19875 15.8009 7.77302 15.8009 7.24845V3.35629ZM11.0494 12H17.7015C18.2261 12 18.6518 12.4257 18.6518 12.9503C18.6518 13.4748 18.2261 13.9006 17.7015 13.9006H11.0494C10.5248 13.9006 10.0991 13.4748 10.0991 12.9503C10.0991 12.4257 10.5248 12 11.0494 12ZM11.0494 15.8012H15.8009C16.3255 15.8012 16.7512 16.2269 16.7512 16.7515C16.7512 17.276 16.3255 17.7018 15.8009 17.7018H11.0494C10.5248 17.7018 10.0991 17.276 10.0991 16.7515C10.0991 16.2269 10.5248 15.8012 11.0494 15.8012Z"
        fill="currentColor" />
</svg>
