<svg fill="none" height="24" viewBox="0 0 24 24" width="24" xmlns="http://www.w3.org/2000/svg">
    <path
        d="M22.1468 7.0089L15.3521 1.78223C15.1556 1.63106 14.8901 1.54663 14.6131 1.54663H3.63705C2.48196 1.54663 1.54639 2.2663 1.54639 3.15484V20.8451C1.54639 21.7336 2.48196 22.4533 3.63705 22.4533H20.3624C21.5175 22.4533 22.453 21.7336 22.453 20.8451V7.5774C22.453 7.36431 22.3433 7.16007 22.1468 7.0089ZM15.1357 16.8246H6.77305C6.19603 16.8246 5.72772 16.4651 5.72772 16.0205C5.72772 15.5758 6.19603 15.2164 6.77305 15.2164H15.1357C15.7138 15.2164 16.1811 15.5758 16.1811 16.0205C16.1811 16.4651 15.7138 16.8246 15.1357 16.8246ZM17.2264 13.6082H6.77305C6.19603 13.6082 5.72772 13.2487 5.72772 12.8041C5.72772 12.3602 6.19603 12 6.77305 12H17.2264C17.8045 12 18.2717 12.3602 18.2717 12.8041C18.2717 13.2487 17.8045 13.6082 17.2264 13.6082ZM15.1357 7.97945C14.5587 7.97945 14.0904 7.61921 14.0904 7.17535V3.07764L20.4627 7.97945H15.1357Z"
        fill="currentColor" />
</svg>
