<svg fill="none" height="24" viewBox="0 0 24 24" width="24" xmlns="http://www.w3.org/2000/svg">
    <path
        d="M11.4988 1.5651C11.258 1.56857 11.0286 1.65977 10.8608 1.8187C10.6931 1.97763 10.6007 2.19129 10.604 2.4128V4.24214C9.55202 4.59116 8.78604 5.51271 8.78604 6.59414C8.78604 7.00928 8.90966 7.39588 9.10738 7.74237L5.41818 14.9568H2.42315C1.92139 14.9568 1.51416 15.3315 1.51416 15.7931C1.51416 16.2547 1.92139 16.6293 2.42315 16.6293H4.56246L2.42315 20.8107V21.6469L3.33213 22.4832L4.24112 21.6469V20.9985L11.0585 9.06047C11.2071 9.08394 11.3576 9.10294 11.513 9.10294C11.6678 9.10294 11.8177 9.08376 11.9657 9.06047L15.3336 14.9568H12.422V14.1205C12.4237 14.0087 12.4009 13.8976 12.3551 13.794C12.3092 13.6903 12.2413 13.5962 12.1552 13.5171C12.0691 13.4381 11.9667 13.3757 11.8539 13.3338C11.7412 13.2918 11.6204 13.2711 11.4988 13.2728C11.258 13.2763 11.0286 13.3675 10.8608 13.5264C10.6931 13.6854 10.6007 13.899 10.604 14.1205V14.9568H9.51039L8.55347 16.6293H10.604V17.4656C10.6023 17.5764 10.6246 17.6864 10.6695 17.7893C10.7144 17.8921 10.7811 17.9857 10.8657 18.0646C10.9502 18.1435 11.051 18.2062 11.1621 18.249C11.2733 18.2918 11.3925 18.3138 11.513 18.3138C11.6335 18.3138 11.7527 18.2918 11.8639 18.249C11.975 18.2062 12.0758 18.1435 12.1603 18.0646C12.2449 17.9857 12.3116 17.8921 12.3565 17.7893C12.4014 17.6864 12.4237 17.5764 12.422 17.4656V16.6293H16.2887L18.7849 20.9985V21.6469L19.6939 22.4832L20.6029 21.6469V20.8107L13.9186 7.74237C14.1163 7.39588 14.24 7.00928 14.24 6.59414C14.24 5.51271 13.474 4.59116 12.422 4.24214V2.4128C12.4237 2.30092 12.4009 2.18987 12.3551 2.08622C12.3092 1.98257 12.2413 1.88844 12.1552 1.80939C12.0691 1.73035 11.9667 1.668 11.8539 1.62604C11.7412 1.58408 11.6204 1.56336 11.4988 1.5651V1.5651ZM11.4615 5.76767C11.4964 5.76952 11.5314 5.76952 11.5663 5.76767C12.0513 5.79342 12.422 6.13991 12.422 6.59414C12.422 7.0659 12.0258 7.4304 11.513 7.4304C11.0002 7.4304 10.604 7.0659 10.604 6.59414C10.604 6.13935 10.9756 5.79264 11.4615 5.76767ZM19.4258 14.9568L20.2815 16.6293H21.5118C22.0136 16.6293 22.4208 16.2547 22.4208 15.7931C22.4208 15.3315 22.0136 14.9568 21.5118 14.9568H19.4258Z"
        fill="currentColor" />
</svg>
