<svg fill="none" height="18" viewBox="0 0 18 18" width="18" xmlns="http://www.w3.org/2000/svg">
    <path
        d="M7.50005 1.80005C7.10222 1.80005 6.72069 1.95808 6.43939 2.23939C6.15808 2.52069 6.00005 2.90222 6.00005 3.30005C6.00077 3.42422 6.01691 3.54782 6.0481 3.66802C5.78991 3.72716 5.49245 3.83577 5.26411 4.06411C4.76731 4.56091 4.80122 5.39888 4.80122 5.39888C4.80122 5.39888 5.63919 5.43279 6.13599 4.93599C6.2993 4.77267 6.39305 4.57589 6.46177 4.38052C6.74073 4.64915 7.11277 4.79948 7.50005 4.80005C7.89787 4.80005 8.2794 4.64201 8.56071 4.36071C8.84201 4.0794 9.00005 3.69787 9.00005 3.30005C9.00005 2.90222 8.84201 2.52069 8.56071 2.23939C8.2794 1.95808 7.89787 1.80005 7.50005 1.80005ZM12 1.80005L10.4004 6.60005H8.95552C8.57918 6.2315 8.0691 6.00005 7.50005 6.00005C6.931 6.00005 6.42092 6.2315 6.04458 6.60005H2.40005C2.32054 6.59892 2.2416 6.61361 2.16782 6.64326C2.09404 6.67291 2.02689 6.71693 1.97027 6.77275C1.91365 6.82858 1.86868 6.8951 1.838 6.96846C1.80731 7.04181 1.7915 7.12053 1.7915 7.20005C1.7915 7.27956 1.80731 7.35829 1.838 7.43164C1.86868 7.50499 1.91365 7.57152 1.97027 7.62734C2.02689 7.68317 2.09404 7.72719 2.16782 7.75684C2.2416 7.78648 2.32054 7.80117 2.40005 7.80005H15.6C15.6796 7.80117 15.7585 7.78648 15.8323 7.75684C15.9061 7.72719 15.9732 7.68317 16.0298 7.62734C16.0865 7.57152 16.1314 7.50499 16.1621 7.43164C16.1928 7.35829 16.2086 7.27956 16.2086 7.20005C16.2086 7.12053 16.1928 7.04181 16.1621 6.96846C16.1314 6.8951 16.0865 6.82858 16.0298 6.77275C15.9732 6.71693 15.9061 6.67291 15.8323 6.64326C15.7585 6.61361 15.6796 6.59892 15.6 6.60005H15.5684C15.2444 2.8893 12 1.80005 12 1.80005ZM2.40005 9.00005L2.99653 10.4918C3.36133 11.4026 4.24267 12 5.22427 12H12.7758C13.7568 12 14.6388 11.4026 15.0036 10.4918L15.6 9.00005H2.40005ZM6.30005 13.2C5.90222 13.2 5.52069 13.3581 5.23939 13.6394C4.95808 13.9207 4.80005 14.3022 4.80005 14.7C4.80005 15.0979 4.95808 15.4794 5.23939 15.7607C5.52069 16.042 5.90222 16.2 6.30005 16.2C6.69787 16.2 7.0794 16.042 7.36071 15.7607C7.64201 15.4794 7.80005 15.0979 7.80005 14.7C7.80005 14.3022 7.64201 13.9207 7.36071 13.6394C7.0794 13.3581 6.69787 13.2 6.30005 13.2ZM11.7 13.2C11.3022 13.2 10.9207 13.3581 10.6394 13.6394C10.3581 13.9207 10.2 14.3022 10.2 14.7C10.2 15.0979 10.3581 15.4794 10.6394 15.7607C10.9207 16.042 11.3022 16.2 11.7 16.2C12.0979 16.2 12.4794 16.042 12.7607 15.7607C13.042 15.4794 13.2 15.0979 13.2 14.7C13.2 14.3022 13.042 13.9207 12.7607 13.6394C12.4794 13.3581 12.0979 13.2 11.7 13.2Z"
        fill="currentColor" />
</svg>
