<svg fill="none" height="18" viewBox="0 0 18 18" width="18" xmlns="http://www.w3.org/2000/svg">
    <path
        d="M4.1999 2.40002C3.72251 2.40002 3.26468 2.58967 2.92711 2.92723C2.58954 3.2648 2.3999 3.72263 2.3999 4.20002C2.3999 4.67741 2.58954 5.13525 2.92711 5.47282C3.26468 5.81038 3.72251 6.00002 4.1999 6.00002C4.67729 6.00002 5.13513 5.81038 5.47269 5.47282C5.81026 5.13525 5.9999 4.67741 5.9999 4.20002C5.9999 3.72263 5.81026 3.2648 5.47269 2.92723C5.13513 2.58967 4.67729 2.40002 4.1999 2.40002ZM8.9999 2.40002C8.52251 2.40002 8.06468 2.58967 7.72711 2.92723C7.38954 3.2648 7.1999 3.72263 7.1999 4.20002C7.1999 4.67741 7.38954 5.13525 7.72711 5.47282C8.06468 5.81038 8.52251 6.00002 8.9999 6.00002C9.47729 6.00002 9.93513 5.81038 10.2727 5.47282C10.6103 5.13525 10.7999 4.67741 10.7999 4.20002C10.7999 3.72263 10.6103 3.2648 10.2727 2.92723C9.93513 2.58967 9.47729 2.40002 8.9999 2.40002ZM13.7999 2.40002C13.3225 2.40002 12.8647 2.58967 12.5271 2.92723C12.1895 3.2648 11.9999 3.72263 11.9999 4.20002C11.9999 4.67741 12.1895 5.13525 12.5271 5.47282C12.8647 5.81038 13.3225 6.00002 13.7999 6.00002C14.2773 6.00002 14.7351 5.81038 15.0727 5.47282C15.4103 5.13525 15.5999 4.67741 15.5999 4.20002C15.5999 3.72263 15.4103 3.2648 15.0727 2.92723C14.7351 2.58967 14.2773 2.40002 13.7999 2.40002ZM4.1999 7.20002C3.72251 7.20002 3.26468 7.38967 2.92711 7.72723C2.58954 8.0648 2.3999 8.52263 2.3999 9.00002C2.3999 9.47741 2.58954 9.93525 2.92711 10.2728C3.26468 10.6104 3.72251 10.8 4.1999 10.8C4.67729 10.8 5.13513 10.6104 5.47269 10.2728C5.81026 9.93525 5.9999 9.47741 5.9999 9.00002C5.9999 8.52263 5.81026 8.0648 5.47269 7.72723C5.13513 7.38967 4.67729 7.20002 4.1999 7.20002ZM8.9999 7.20002C8.52251 7.20002 8.06468 7.38967 7.72711 7.72723C7.38954 8.0648 7.1999 8.52263 7.1999 9.00002C7.1999 9.47741 7.38954 9.93525 7.72711 10.2728C8.06468 10.6104 8.52251 10.8 8.9999 10.8C9.47729 10.8 9.93513 10.6104 10.2727 10.2728C10.6103 9.93525 10.7999 9.47741 10.7999 9.00002C10.7999 8.52263 10.6103 8.0648 10.2727 7.72723C9.93513 7.38967 9.47729 7.20002 8.9999 7.20002ZM13.7999 7.20002C13.3225 7.20002 12.8647 7.38967 12.5271 7.72723C12.1895 8.0648 11.9999 8.52263 11.9999 9.00002C11.9999 9.47741 12.1895 9.93525 12.5271 10.2728C12.8647 10.6104 13.3225 10.8 13.7999 10.8C14.2773 10.8 14.7351 10.6104 15.0727 10.2728C15.4103 9.93525 15.5999 9.47741 15.5999 9.00002C15.5999 8.52263 15.4103 8.0648 15.0727 7.72723C14.7351 7.38967 14.2773 7.20002 13.7999 7.20002ZM4.1999 12C3.72251 12 3.26468 12.1897 2.92711 12.5272C2.58954 12.8648 2.3999 13.3226 2.3999 13.8C2.3999 14.2774 2.58954 14.7353 2.92711 15.0728C3.26468 15.4104 3.72251 15.6 4.1999 15.6C4.67729 15.6 5.13513 15.4104 5.47269 15.0728C5.81026 14.7353 5.9999 14.2774 5.9999 13.8C5.9999 13.3226 5.81026 12.8648 5.47269 12.5272C5.13513 12.1897 4.67729 12 4.1999 12ZM8.9999 12C8.52251 12 8.06468 12.1897 7.72711 12.5272C7.38954 12.8648 7.1999 13.3226 7.1999 13.8C7.1999 14.2774 7.38954 14.7353 7.72711 15.0728C8.06468 15.4104 8.52251 15.6 8.9999 15.6C9.47729 15.6 9.93513 15.4104 10.2727 15.0728C10.6103 14.7353 10.7999 14.2774 10.7999 13.8C10.7999 13.3226 10.6103 12.8648 10.2727 12.5272C9.93513 12.1897 9.47729 12 8.9999 12ZM13.7999 12C13.3225 12 12.8647 12.1897 12.5271 12.5272C12.1895 12.8648 11.9999 13.3226 11.9999 13.8C11.9999 14.2774 12.1895 14.7353 12.5271 15.0728C12.8647 15.4104 13.3225 15.6 13.7999 15.6C14.2773 15.6 14.7351 15.4104 15.0727 15.0728C15.4103 14.7353 15.5999 14.2774 15.5999 13.8C15.5999 13.3226 15.4103 12.8648 15.0727 12.5272C14.7351 12.1897 14.2773 12 13.7999 12Z"
        fill="currentColor" />
</svg>
