<svg fill="none" height="72" viewBox="0 0 72 72" width="72" xmlns="http://www.w3.org/2000/svg">
    <path
        d="M20.3999 12C14.3869 12 9.29362 16.0769 7.71553 21.6H4.7999C4.48188 21.5955 4.16613 21.6543 3.871 21.7728C3.57588 21.8914 3.30727 22.0675 3.08078 22.2908C2.85429 22.5141 2.67445 22.7802 2.55169 23.0736C2.42894 23.367 2.36572 23.6819 2.36572 24C2.36572 24.3181 2.42894 24.6329 2.55169 24.9264C2.67445 25.2198 2.85429 25.4859 3.08078 25.7092C3.30727 25.9325 3.57588 26.1086 3.871 26.2271C4.16613 26.3457 4.48188 26.4045 4.7999 26.4H7.26084C7.87245 33.1041 13.543 38.4 20.3999 38.4C27.6616 38.4 33.5999 32.4617 33.5999 25.2C33.5999 24.9486 33.5764 24.7027 33.5624 24.4547C33.5893 24.3047 33.6019 24.1524 33.5999 24C33.5999 22.6439 34.6438 21.6 35.9999 21.6C37.356 21.6 38.3999 22.6439 38.3999 24C38.3979 24.1524 38.4105 24.3047 38.4374 24.4547C38.4234 24.7027 38.3999 24.9486 38.3999 25.2C38.3999 32.4617 44.3382 38.4 51.5999 38.4C58.4568 38.4 64.1274 33.1041 64.739 26.4H67.1999C67.5179 26.4045 67.8337 26.3457 68.1288 26.2271C68.4239 26.1086 68.6925 25.9325 68.919 25.7092C69.1455 25.4859 69.3254 25.2198 69.4481 24.9264C69.5709 24.6329 69.6341 24.3181 69.6341 24C69.6341 23.6819 69.5709 23.367 69.4481 23.0736C69.3254 22.7802 69.1455 22.5141 68.919 22.2908C68.6925 22.0675 68.4239 21.8914 68.1288 21.7728C67.8337 21.6543 67.5179 21.5955 67.1999 21.6H64.2843C62.7062 16.0769 57.6129 12 51.5999 12C46.8553 12 42.6868 14.5405 40.3593 18.3234C39.1424 17.3837 37.6405 16.8 35.9999 16.8C34.3593 16.8 32.8574 17.3837 31.6405 18.3234C29.313 14.5405 25.1445 12 20.3999 12ZM20.3999 16.8C25.0675 16.8 28.7999 20.5324 28.7999 25.2C28.7999 29.8676 25.0675 33.6 20.3999 33.6C15.7323 33.6 11.9999 29.8676 11.9999 25.2C11.9999 20.5324 15.7323 16.8 20.3999 16.8ZM51.5999 16.8C56.2675 16.8 59.9999 20.5324 59.9999 25.2C59.9999 29.8676 56.2675 33.6 51.5999 33.6C46.9323 33.6 43.1999 29.8676 43.1999 25.2C43.1999 20.5324 46.9323 16.8 51.5999 16.8ZM31.1999 43.2C23.9327 43.2 24.1391 52.8 16.7999 52.8C8.65911 52.8 9.5999 45.6 9.5999 45.6C9.5999 45.6 7.1999 48.2304 7.1999 51.6C7.1999 57.3624 13.2748 60 21.5812 60C28.711 60 33.4214 58.4656 35.9999 55.9969C38.5784 58.4656 43.2888 60 50.4187 60C58.7251 60 64.7999 57.3624 64.7999 51.6C64.7999 48.2304 62.3999 45.6 62.3999 45.6C62.3999 45.6 63.3407 52.8 55.1999 52.8C47.8607 52.8 48.0671 43.2 40.7999 43.2C38.8369 43.2 37.2176 43.8611 35.9999 44.9203C34.7823 43.8611 33.1629 43.2 31.1999 43.2Z"
        fill="currentColor" />
</svg>
