<svg fill="none" height="24" viewBox="0 0 24 24" width="24" xmlns="http://www.w3.org/2000/svg">
    <path
        d="M6.77305 1.47198C3.88619 1.47198 1.54639 4.27975 1.54639 7.74398V20.288C1.54639 21.4431 2.32603 22.3787 3.28861 22.3787H6.77305H11.9997H20.7108C21.663 22.3787 22.4531 21.4306 22.4531 20.288V7.74398C22.4531 4.29269 20.1025 1.47198 17.2264 1.47198H6.77305ZM10.6607 3.56265H17.2264C19.1606 3.56265 20.7108 5.42295 20.7108 7.74398V20.288H11.9997V7.74398C11.9997 6.13493 11.4907 4.67288 10.6607 3.56265ZM15.4842 5.65332C15.0221 5.65332 14.579 5.87358 14.2522 6.26566C13.9255 6.65774 13.7419 7.18951 13.7419 7.74398C13.7419 8.29846 13.9255 8.83023 14.2522 9.22231C14.579 9.61438 15.0221 9.83465 15.4842 9.83465V17.152H17.2264H18.9686V12.9707H17.2264V7.74398C17.2264 7.18951 17.0428 6.65774 16.7161 6.26566C16.3894 5.87358 15.9462 5.65332 15.4842 5.65332ZM5.03083 7.74398H8.51528C8.99613 7.74398 9.38639 8.21229 9.38639 8.78932C9.38639 9.36634 8.99613 9.83465 8.51528 9.83465H5.03083C4.54998 9.83465 4.15972 9.36634 4.15972 8.78932C4.15972 8.21229 4.54998 7.74398 5.03083 7.74398Z"
        fill="currentColor" />
</svg>
