<svg fill="none" height="18" viewBox="0 0 18 18" width="18" xmlns="http://www.w3.org/2000/svg">
    <path
        d="M8.99995 1.80005C8.52256 1.80005 8.06472 1.98969 7.72716 2.32726C7.38959 2.66482 7.19995 3.12266 7.19995 3.60005C7.19995 4.07744 7.38959 4.53528 7.72716 4.87284C8.06472 5.21041 8.52256 5.40005 8.99995 5.40005C9.47734 5.40005 9.93518 5.21041 10.2727 4.87284C10.6103 4.53528 10.8 4.07744 10.8 3.60005C10.8 3.12266 10.6103 2.66482 10.2727 2.32726C9.93518 1.98969 9.47734 1.80005 8.99995 1.80005V1.80005ZM7.77417 6.60005C6.88677 6.60005 6.07536 7.08622 5.65776 7.86802L4.38628 10.2458C4.14748 10.61 4.13776 11.0801 4.36636 11.4551C4.57456 11.7971 4.94321 12.0012 5.33081 12.0012C5.38241 12.0012 5.43447 11.9967 5.48667 11.9895L6.59995 11.8465V12.6891L4.70269 14.0333C4.38769 14.2571 4.19995 14.6207 4.19995 15.0071C4.19995 15.6647 4.73472 16.2 5.39292 16.2H6.71597C6.64817 16.011 6.59995 15.8124 6.59995 15.6C6.59995 14.6058 7.40575 13.8 8.39995 13.8C8.74735 13.8 8.99995 13.8985 8.99995 13.8985L10.9863 14.5301L8.39995 15C8.32044 14.9989 8.24151 15.0136 8.16773 15.0433C8.09394 15.0729 8.02679 15.1169 7.97017 15.1728C7.91355 15.2286 7.86859 15.2951 7.8379 15.3685C7.80721 15.4418 7.79141 15.5205 7.79141 15.6C7.79141 15.6796 7.80721 15.7583 7.8379 15.8316C7.86859 15.905 7.91355 15.9715 7.97017 16.0273C8.02679 16.0832 8.09394 16.1272 8.16773 16.1568C8.24151 16.1865 8.32044 16.2012 8.39995 16.2H12.607C13.0948 16.2 13.4394 15.8568 13.623 15.4313C13.6789 15.3757 13.7233 15.3096 13.7537 15.2368C13.7841 15.164 13.7998 15.086 13.8 15.0071C13.8 14.6201 13.6113 14.2562 13.2984 14.0333C13.2976 14.0333 13.2968 14.0333 13.296 14.0333L11.4 12.6891V11.8465L12.505 11.9883C12.9538 12.0525 13.3971 11.8433 13.6335 11.4551C13.8615 11.0801 13.8524 10.6106 13.6136 10.2458L12.3421 7.86802C11.9239 7.08622 11.1125 6.60005 10.2257 6.60005H7.77417ZM9.09605 7.80239C10.0698 7.85339 10.8 8.727 10.8 9.702V9.93403C10.8 10.2658 10.5094 10.521 10.18 10.479C9.94963 10.449 9.76225 10.278 9.71245 10.0512L9.58589 9.47231C9.54989 9.30791 9.44953 9.17426 9.31753 9.09146C9.30853 9.08546 9.299 9.07985 9.2894 9.07505C9.2024 9.02645 9.10432 9.00005 9.00112 9.00005H8.99878C8.90218 9.00005 8.80913 9.02307 8.72573 9.06567C8.70473 9.07647 8.684 9.0882 8.6648 9.102C8.5406 9.1854 8.44764 9.31394 8.41284 9.47114L8.28628 10.0512C8.23648 10.278 8.05027 10.4496 7.81987 10.479C7.49107 10.5216 7.19995 10.2658 7.19995 9.93403V9.60005C7.19995 8.57405 8.05805 7.74839 9.09605 7.80239Z"
        fill="currentColor" />
</svg>
