<svg width="28" height="28" viewBox="0 0 28 28" fill="none" xmlns="http://www.w3.org/2000/svg">
<path d="M21.4668 1.86664C21.3747 1.86713 21.2831 1.88126 21.1951 1.90857L12.8116 3.76612L12.8079 3.77159C12.6137 3.82764 12.443 3.9452 12.3214 4.10661C12.1997 4.26801 12.1338 4.46454 12.1334 4.66664V14.9333C12.1334 15.9646 11.2981 16.8 10.2668 16.8H9.80374C9.80253 16.8 9.80131 16.8 9.8001 16.8C8.68619 16.8 7.6179 17.2425 6.83025 18.0301C6.0426 18.8178 5.6001 19.8861 5.6001 21C5.6001 22.1139 6.0426 23.1822 6.83025 23.9698C7.6179 24.7575 8.68619 25.2 9.8001 25.2C10.914 25.2 11.9823 24.7575 12.7699 23.9698C13.5576 23.1822 14.0001 22.1139 14.0001 21V9.14737L21.6108 7.4557C21.8307 7.42135 22.0312 7.30951 22.1759 7.14037C22.3206 6.97123 22.4002 6.75592 22.4001 6.5333V2.79997C22.4001 2.55244 22.3018 2.31504 22.1267 2.14001C21.9517 1.96497 21.7143 1.86664 21.4668 1.86664Z" fill="white"/>
</svg>
