<svg width="28" height="28" viewBox="0 0 28 28" fill="none" xmlns="http://www.w3.org/2000/svg">
<path d="M12.6002 2.79999C11.8152 2.8007 11.0567 3.08407 10.4635 3.59825C9.87036 4.11243 9.48218 4.82303 9.37003 5.59999C9.35788 5.59991 9.34573 5.59991 9.33357 5.59999C8.59097 5.59999 7.87878 5.89499 7.35368 6.42009C6.82857 6.94519 6.53357 7.65738 6.53357 8.39999C6.53357 9.14259 6.82857 9.85479 7.35368 10.3799C7.87878 10.905 8.59097 11.2 9.33357 11.2H19.6002C20.0953 11.2 20.5701 11.0033 20.9202 10.6533C21.2702 10.3032 21.4669 9.82839 21.4669 9.33332C21.4669 8.83825 21.2702 8.36346 20.9202 8.01339C20.5701 7.66332 20.0953 7.46665 19.6002 7.46665H19.5966C19.5966 6.72468 19.3021 6.01304 18.7778 5.48804C18.2535 4.96305 17.5422 4.66762 16.8002 4.66665C16.4048 4.6674 16.014 4.7519 15.6536 4.91457C15.4196 4.29373 15.0021 3.75885 14.4567 3.38111C13.9113 3.00337 13.2637 2.80067 12.6002 2.79999ZM17.7336 12.1333C17.7336 12.1333 16.8002 13.4848 16.8002 14C16.8002 14.5152 17.2184 14.9333 17.7336 14.9333C18.2488 14.9333 18.6669 14.5152 18.6669 14C18.6669 13.4848 17.7336 12.1333 17.7336 12.1333ZM10.2669 13.0667C10.2669 13.0667 9.33357 14.4181 9.33357 14.9333C9.33357 15.4485 9.75171 15.8667 10.2669 15.8667C10.7821 15.8667 11.2002 15.4485 11.2002 14.9333C11.2002 14.4181 10.2669 13.0667 10.2669 13.0667ZM14.0002 14C14.0002 14 13.0669 15.3515 13.0669 15.8667C13.0669 16.3819 13.485 16.8 14.0002 16.8C14.5154 16.8 14.9336 16.3819 14.9336 15.8667C14.9336 15.3515 14.0002 14 14.0002 14ZM2.74191 14.9206C2.60367 14.9286 2.46895 14.9673 2.34752 15.0339C2.22609 15.1005 2.121 15.1932 2.03985 15.3054C1.9587 15.4176 1.90354 15.5465 1.87836 15.6827C1.85318 15.8188 1.8586 15.9589 1.89425 16.0927L3.40727 22.1448C3.40727 22.1454 3.40727 22.146 3.40727 22.1466C3.71828 23.3878 4.84482 24.2667 6.12524 24.2667H21.8771C23.1575 24.2667 24.2834 23.3868 24.5932 22.1448L26.1062 16.0927C26.136 15.9737 26.1419 15.85 26.1239 15.7287C26.1058 15.6074 26.064 15.4909 26.0008 15.3857C25.9377 15.2806 25.8545 15.1889 25.7559 15.1159C25.6573 15.043 25.5453 14.9901 25.4263 14.9604C25.3073 14.9307 25.1837 14.9248 25.0624 14.9429C24.9411 14.961 24.8245 15.0028 24.7194 15.066C24.6143 15.1292 24.5226 15.2124 24.4497 15.311C24.3767 15.4096 24.3239 15.5216 24.2943 15.6406L23.6252 18.3185C22.9894 18.5047 22.2389 18.6667 21.4669 18.6667C19.6002 18.6667 17.7336 17.7333 17.7336 17.7333C17.7336 17.7333 15.8669 18.6667 14.0002 18.6667C12.1336 18.6667 10.2669 17.7333 10.2669 17.7333C10.2669 17.7333 8.40024 18.6667 6.53357 18.6667C5.76149 18.6667 5.01111 18.5045 4.37524 18.3185L3.70623 15.6406C3.65973 15.4418 3.54932 15.2637 3.39194 15.1337C3.23456 15.0036 3.03888 14.9288 2.83488 14.9206C2.80391 14.919 2.77288 14.919 2.74191 14.9206Z" fill="white"/>
</svg>
