<svg width="28" height="28" viewBox="0 0 28 28" fill="none" xmlns="http://www.w3.org/2000/svg">
<path d="M9.33351 3.73334C8.08906 3.73334 7.18247 4.35677 6.48247 4.82344C5.78247 5.29011 5.28906 5.6 4.66684 5.6C4.54316 5.59825 4.42037 5.6211 4.3056 5.66722C4.19083 5.71334 4.08637 5.78181 3.99829 5.86865C3.91021 5.9555 3.84027 6.05898 3.79254 6.17308C3.7448 6.28719 3.72021 6.40965 3.72021 6.53334C3.72021 6.65703 3.7448 6.77948 3.79254 6.89359C3.84027 7.0077 3.91021 7.11118 3.99829 7.19802C4.08637 7.28486 4.19083 7.35333 4.3056 7.39945C4.42037 7.44557 4.54316 7.46842 4.66684 7.46667C5.91129 7.46667 6.81788 6.84323 7.51788 6.37657C8.21788 5.9099 8.71129 5.6 9.33351 5.6C9.95573 5.6 10.4491 5.9099 11.1491 6.37657C11.8491 6.84323 12.7557 7.46667 14.0002 7.46667C15.2446 7.46667 16.1512 6.84323 16.8512 6.37657C17.5512 5.9099 18.0446 5.6 18.6668 5.6C19.2891 5.6 19.7825 5.9099 20.4825 6.37657C21.1825 6.84323 22.0891 7.46667 23.3335 7.46667C23.4572 7.46842 23.58 7.44557 23.6947 7.39945C23.8095 7.35333 23.914 7.28486 24.0021 7.19802C24.0901 7.11118 24.1601 7.0077 24.2078 6.89359C24.2556 6.77948 24.2801 6.65703 24.2801 6.53334C24.2801 6.40965 24.2556 6.28719 24.2078 6.17308C24.1601 6.05898 24.0901 5.9555 24.0021 5.86865C23.914 5.78181 23.8095 5.71334 23.6947 5.66722C23.58 5.6211 23.4572 5.59825 23.3335 5.6C22.7113 5.6 22.2179 5.29011 21.5179 4.82344C20.8179 4.35677 19.9113 3.73334 18.6668 3.73334C17.4224 3.73334 16.5158 4.35677 15.8158 4.82344C15.1158 5.29011 14.6224 5.6 14.0002 5.6C13.378 5.6 12.8845 5.29011 12.1845 4.82344C11.4845 4.35677 10.578 3.73334 9.33351 3.73334ZM9.33351 9.33334C8.08906 9.33334 7.18247 9.95677 6.48247 10.4234C5.78247 10.8901 5.28906 11.2 4.66684 11.2C4.54316 11.1983 4.42037 11.2211 4.3056 11.2672C4.19083 11.3133 4.08637 11.3818 3.99829 11.4687C3.91021 11.5555 3.84027 11.659 3.79254 11.7731C3.7448 11.8872 3.72021 12.0096 3.72021 12.1333C3.72021 12.257 3.7448 12.3795 3.79254 12.4936C3.84027 12.6077 3.91021 12.7112 3.99829 12.798C4.08637 12.8849 4.19083 12.9533 4.3056 12.9995C4.42037 13.0456 4.54316 13.0684 4.66684 13.0667C5.91129 13.0667 6.81788 12.4432 7.51788 11.9766C8.21788 11.5099 8.71129 11.2 9.33351 11.2C9.95573 11.2 10.4491 11.5099 11.1491 11.9766C11.8491 12.4432 12.7557 13.0667 14.0002 13.0667C15.2446 13.0667 16.1512 12.4432 16.8512 11.9766C17.5512 11.5099 18.0446 11.2 18.6668 11.2C19.2891 11.2 19.7825 11.5099 20.4825 11.9766C21.1825 12.4432 22.0891 13.0667 23.3335 13.0667C23.4572 13.0684 23.58 13.0456 23.6947 12.9995C23.8095 12.9533 23.914 12.8849 24.0021 12.798C24.0901 12.7112 24.1601 12.6077 24.2078 12.4936C24.2556 12.3795 24.2801 12.257 24.2801 12.1333C24.2801 12.0096 24.2556 11.8872 24.2078 11.7731C24.1601 11.659 24.0901 11.5555 24.0021 11.4687C23.914 11.3818 23.8095 11.3133 23.6947 11.2672C23.58 11.2211 23.4572 11.1983 23.3335 11.2C22.7113 11.2 22.2179 10.8901 21.5179 10.4234C20.8179 9.95677 19.9113 9.33334 18.6668 9.33334C17.4224 9.33334 16.5158 9.95677 15.8158 10.4234C15.1158 10.8901 14.6224 11.2 14.0002 11.2C13.378 11.2 12.8845 10.8901 12.1845 10.4234C11.4845 9.95677 10.578 9.33334 9.33351 9.33334ZM9.33351 14.9333C8.08906 14.9333 7.18247 15.5568 6.48247 16.0234C5.78247 16.4901 5.28906 16.8 4.66684 16.8C4.54316 16.7983 4.42037 16.8211 4.3056 16.8672C4.19083 16.9133 4.08637 16.9818 3.99829 17.0687C3.91021 17.1555 3.84027 17.259 3.79254 17.3731C3.7448 17.4872 3.72021 17.6096 3.72021 17.7333C3.72021 17.857 3.7448 17.9795 3.79254 18.0936C3.84027 18.2077 3.91021 18.3112 3.99829 18.398C4.08637 18.4849 4.19083 18.5533 4.3056 18.5995C4.42037 18.6456 4.54316 18.6684 4.66684 18.6667C5.91129 18.6667 6.81788 18.0432 7.51788 17.5766C8.21788 17.1099 8.71129 16.8 9.33351 16.8C9.95573 16.8 10.4491 17.1099 11.1491 17.5766C11.8491 18.0432 12.7557 18.6667 14.0002 18.6667C15.2446 18.6667 16.1512 18.0432 16.8512 17.5766C17.5512 17.1099 18.0446 16.8 18.6668 16.8C19.2891 16.8 19.7825 17.1099 20.4825 17.5766C21.1825 18.0432 22.0891 18.6667 23.3335 18.6667C23.4572 18.6684 23.58 18.6456 23.6947 18.5995C23.8095 18.5533 23.914 18.4849 24.0021 18.398C24.0901 18.3112 24.1601 18.2077 24.2078 18.0936C24.2556 17.9795 24.2801 17.857 24.2801 17.7333C24.2801 17.6096 24.2556 17.4872 24.2078 17.3731C24.1601 17.259 24.0901 17.1555 24.0021 17.0687C23.914 16.9818 23.8095 16.9133 23.6947 16.8672C23.58 16.8211 23.4572 16.7983 23.3335 16.8C22.7113 16.8 22.2179 16.4901 21.5179 16.0234C20.8179 15.5568 19.9113 14.9333 18.6668 14.9333C17.4224 14.9333 16.5158 15.5568 15.8158 16.0234C15.1158 16.4901 14.6224 16.8 14.0002 16.8C13.378 16.8 12.8845 16.4901 12.1845 16.0234C11.4845 15.5568 10.578 14.9333 9.33351 14.9333ZM9.33351 20.5333C8.08906 20.5333 7.18247 21.1568 6.48247 21.6234C5.78247 22.0901 5.28906 22.4 4.66684 22.4C4.54316 22.3983 4.42037 22.4211 4.3056 22.4672C4.19083 22.5133 4.08637 22.5818 3.99829 22.6687C3.91021 22.7555 3.84027 22.859 3.79254 22.9731C3.7448 23.0872 3.72021 23.2096 3.72021 23.3333C3.72021 23.457 3.7448 23.5795 3.79254 23.6936C3.84027 23.8077 3.91021 23.9112 3.99829 23.998C4.08637 24.0849 4.19083 24.1533 4.3056 24.1994C4.42037 24.2456 4.54316 24.2684 4.66684 24.2667C5.91129 24.2667 6.81788 23.6432 7.51788 23.1766C8.21788 22.7099 8.71129 22.4 9.33351 22.4C9.95573 22.4 10.4491 22.7099 11.1491 23.1766C11.8491 23.6432 12.7557 24.2667 14.0002 24.2667C15.2446 24.2667 16.1512 23.6432 16.8512 23.1766C17.5512 22.7099 18.0446 22.4 18.6668 22.4C19.2891 22.4 19.7825 22.7099 20.4825 23.1766C21.1825 23.6432 22.0891 24.2667 23.3335 24.2667C23.4572 24.2684 23.58 24.2456 23.6947 24.1994C23.8095 24.1533 23.914 24.0849 24.0021 23.998C24.0901 23.9112 24.1601 23.8077 24.2078 23.6936C24.2556 23.5795 24.2801 23.457 24.2801 23.3333C24.2801 23.2096 24.2556 23.0872 24.2078 22.9731C24.1601 22.859 24.0901 22.7555 24.0021 22.6687C23.914 22.5818 23.8095 22.5133 23.6947 22.4672C23.58 22.4211 23.4572 22.3983 23.3335 22.4C22.7113 22.4 22.2179 22.0901 21.5179 21.6234C20.8179 21.1568 19.9113 20.5333 18.6668 20.5333C17.4224 20.5333 16.5158 21.1568 15.8158 21.6234C15.1158 22.0901 14.6224 22.4 14.0002 22.4C13.378 22.4 12.8845 22.0901 12.1845 21.6234C11.4845 21.1568 10.578 20.5333 9.33351 20.5333Z" fill="white"/>
</svg>
